<svg width="120" height="121" viewBox="0 0 120 121" fill="none" xmlns="http://www.w3.org/2000/svg">
<g filter="url(#filter0_d_121_183)">
<path d="M78.16 76.0425H86.6625C96.3125 76.0425 104.137 68.2225 104.142 58.5725C104.143 56.277 103.691 54.004 102.813 51.8832C101.934 49.7624 100.647 47.8355 99.0233 46.2124C97.4 44.5894 95.4729 43.3021 93.352 42.424C91.2311 41.5459 88.958 41.0943 86.6625 41.095H76.8175V31.23C76.8181 28.9343 76.3665 26.661 75.4882 24.5399C74.61 22.4188 73.3225 20.4916 71.6992 18.8683C70.0759 17.245 68.1486 15.9575 66.0276 15.0792C63.9065 14.201 61.6332 13.7493 59.3375 13.75H59.33C57.0343 13.7493 54.761 14.201 52.6399 15.0792C50.5188 15.9575 48.5916 17.245 46.9683 18.8683C45.345 20.4916 44.0575 22.4188 43.1792 24.5399C42.301 26.661 41.8493 28.9343 41.85 31.23V43.955M60.68 106.25C62.9757 106.251 65.249 105.799 67.3701 104.921C69.4911 104.043 71.4184 102.755 73.0417 101.132C74.665 99.5084 75.9525 97.5811 76.8307 95.4601C77.709 93.339 78.1606 91.0657 78.16 88.77V61.4175C78.156 56.7846 76.3125 52.3428 73.0346 49.0687C69.7568 45.7946 65.3129 43.9562 60.68 43.9575H33.3275C28.6963 43.9588 24.255 45.7985 20.9793 49.0723C17.7036 52.3461 15.8615 56.7863 15.8575 61.4175C15.8555 63.7132 16.3059 65.9868 17.1829 68.1083C18.0599 70.2299 19.3464 72.1579 20.9687 73.7821C22.5911 75.4063 24.5176 76.695 26.6382 77.5744C28.7587 78.4539 31.0318 78.9068 33.3275 78.9075H43.1825V88.75C43.1808 91.0455 43.6315 93.3188 44.5086 95.4401C45.3858 97.5614 46.6723 99.489 48.2946 101.113C49.9169 102.737 51.8433 104.025 53.9637 104.905C56.0841 105.784 58.357 106.237 60.6525 106.237H60.68V106.25Z" stroke="white" stroke-width="12" stroke-linecap="round" stroke-linejoin="round"/>
</g>
<defs>
<filter id="filter0_d_121_183" x="-4" y="0" width="128" height="128" filterUnits="userSpaceOnUse" color-interpolation-filters="sRGB">
<feFlood flood-opacity="0" result="BackgroundImageFix"/>
<feColorMatrix in="SourceAlpha" type="matrix" values="0 0 0 0 0 0 0 0 0 0 0 0 0 0 0 0 0 0 127 0" result="hardAlpha"/>
<feOffset dy="4"/>
<feGaussianBlur stdDeviation="2"/>
<feComposite in2="hardAlpha" operator="out"/>
<feColorMatrix type="matrix" values="0 0 0 0 0 0 0 0 0 0 0 0 0 0 0 0 0 0 0.25 0"/>
<feBlend mode="normal" in2="BackgroundImageFix" result="effect1_dropShadow_121_183"/>
<feBlend mode="normal" in="SourceGraphic" in2="effect1_dropShadow_121_183" result="shape"/>
</filter>
</defs>
</svg>
