<svg width="200" height="200" viewBox="0 0 200 200" fill="none" xmlns="http://www.w3.org/2000/svg">
<g filter="url(#filter0_d_122_197)">
<path d="M130.267 126.737H144.437C160.521 126.737 173.562 113.704 173.571 97.6208C173.571 93.795 172.818 90.0066 171.354 86.4719C169.89 82.9373 167.744 79.7257 165.039 77.0207C162.333 74.3156 159.121 72.1701 155.587 70.7066C152.052 69.2432 148.263 68.4905 144.437 68.4916H128.029V52.05C128.03 48.2238 127.277 44.4349 125.814 40.8998C124.35 37.3647 122.204 34.1526 119.499 31.4471C116.793 28.7416 113.581 26.5957 110.046 25.132C106.511 23.6683 102.722 22.9155 98.8958 22.9166H98.8833C95.0572 22.9155 91.2683 23.6683 87.7332 25.132C84.1981 26.5957 80.986 28.7416 78.2805 31.4471C75.575 34.1526 73.4291 37.3647 71.9654 40.8998C70.5017 44.4349 69.7489 48.2238 69.75 52.05V73.2583M101.133 177.083C104.959 177.084 108.748 176.332 112.283 174.868C115.819 173.404 119.031 171.258 121.736 168.553C124.442 165.847 126.588 162.635 128.051 159.1C129.515 155.565 130.268 151.776 130.267 147.95V102.362C130.26 94.6409 127.187 87.238 121.724 81.7812C116.261 76.3244 108.855 73.2602 101.133 73.2625H55.5458C47.8272 73.2647 40.425 76.3307 34.9655 81.7871C29.5061 87.2434 26.4358 94.6438 26.4291 102.362C26.4259 106.189 27.1765 109.978 28.6382 113.514C30.0999 117.05 32.2439 120.263 34.9479 122.97C37.6518 125.677 40.8627 127.825 44.3969 129.291C47.9312 130.756 51.7197 131.511 55.5458 131.512H71.9708V147.917C71.9681 151.742 72.7191 155.531 74.181 159.067C75.643 162.602 77.7871 165.815 80.491 168.522C83.1949 171.228 86.4056 173.376 89.9396 174.841C93.4736 176.307 97.2617 177.061 101.087 177.062H101.133V177.083Z" stroke="#46E5C0" stroke-width="12" stroke-linecap="round" stroke-linejoin="round"/>
</g>
<defs>
<filter id="filter0_d_122_197" x="-4" y="0" width="208" height="208" filterUnits="userSpaceOnUse" color-interpolation-filters="sRGB">
<feFlood flood-opacity="0" result="BackgroundImageFix"/>
<feColorMatrix in="SourceAlpha" type="matrix" values="0 0 0 0 0 0 0 0 0 0 0 0 0 0 0 0 0 0 127 0" result="hardAlpha"/>
<feOffset dy="4"/>
<feGaussianBlur stdDeviation="2"/>
<feComposite in2="hardAlpha" operator="out"/>
<feColorMatrix type="matrix" values="0 0 0 0 0 0 0 0 0 0 0 0 0 0 0 0 0 0 0.25 0"/>
<feBlend mode="normal" in2="BackgroundImageFix" result="effect1_dropShadow_122_197"/>
<feBlend mode="normal" in="SourceGraphic" in2="effect1_dropShadow_122_197" result="shape"/>
</filter>
</defs>
</svg>
